<?xml version="1.0" encoding="utf-8" ?><svg xmlns="http://www.w3.org/2000/svg" xmlns:xlink="http://www.w3.org/1999/xlink" width="66" height="86" viewBox="0 0 66 86"><path fill="white" d="M25.1076 0L31.4583 0C45.6947 3.76718 50.7652 17.4812 48.7578 31.0226C47.9003 36.8072 45.8866 42.599 53.3711 44.6032C56.6415 43.5362 57.6041 43.0339 59.7183 40.28C63.2012 43.4263 65.4321 50.1228 65.6807 54.7248C66.6154 72.023 51.4323 84.1339 35.4605 85.2188C17.5428 86.4359 3.31033 75.4036 0.530395 57.8242C0.442523 57.2685 0.223635 56.3532 0 55.8508L0 46.0436C0.744597 44.7608 0.655315 42.6887 1.17731 41.054C3.63159 33.3682 6.06596 30.1039 12.0042 25.013C12.0065 29.9124 10.1431 36.9465 13.899 41.1393C14.2846 41.5697 14.9409 42.5475 15.4898 42.6352C15.7794 42.1866 15.6627 39.9343 15.8835 38.9608C16.3252 37.0135 16.8159 35.5338 17.6701 33.7012C21.7771 24.8897 30.1323 21.174 28.8859 10.146C28.4263 6.0796 25.0101 2.43713 25.1076 0ZM19.866 53.9893C14.4909 62.2604 13.4112 72.0129 22.6155 78.2981C29.403 81.351 33.5815 81.6817 40.8334 79.1725C47.8086 76.759 51.539 69.3884 49.1355 62.323C48.4304 60.2505 46.8476 58.3561 45.4593 56.7034C39.8796 50.5035 36.5013 46.7866 37.4955 37.8265C37.8225 34.8788 38.581 31.485 39.6625 28.6758C39.815 28.2798 39.7969 28.5169 39.6961 28.0066C33.0058 31.2763 26.9476 36.7923 24.4851 43.9826C21.452 52.8389 26.3598 54.856 26.0067 59.9083C25.992 60.1196 25.7596 60.4707 25.5749 60.5606C24.8765 60.9005 24.1834 61.0182 23.428 60.7624C22.3837 60.4088 21.6364 59.5377 21.1705 58.5688C20.4863 57.1461 20.1333 55.5389 19.866 53.9893Z"/></svg>