<?xml version="1.0" encoding="utf-8" ?><svg xmlns="http://www.w3.org/2000/svg" xmlns:xlink="http://www.w3.org/1999/xlink" width="87" height="86" viewBox="0 0 87 86"><path fill="#FFFEFF" d="M41.6128 0L44.9401 0C50.8939 3.50992 61.0631 14.8559 66.5232 20.2681L79.1352 32.7982C80.9486 34.6019 86.1125 39.3339 87 41.3298L87 41.5549C85.9208 44.8704 80.7926 44.0366 77.9171 44.0445C78.2105 52.2602 77.8508 60.5635 78.1167 68.7914C78.1838 70.8685 79.2809 75.9943 78.3537 77.5894C75.831 79.8613 61.7074 78.8881 57.4368 79.0785C57.6214 80.8025 57.9946 83.1677 57.5108 84.7831C57.1202 85.2196 56.9414 85.4376 56.2729 85.4213C47.7801 85.2142 39.2879 85.3823 30.796 85.2702C28.0319 85.2337 29.0853 80.9756 29.3321 79.0844C26.0532 79.0675 10.4971 79.7732 8.52043 77.7078C7.91558 77.0758 7.88683 75.9347 7.91996 75.1092C8.01327 72.7841 8.59364 70.4774 8.70592 68.1486C9.08882 60.2064 8.99504 51.9389 8.63314 44.0019C5.72493 44.0645 2.41255 44.5263 0 42.891L0 40.7845C2.6408 37.0016 9.86221 30.3392 13.3706 26.9403C13.3339 23.2721 13.1162 19.594 12.9016 15.9574C12.7578 13.5185 11.6697 6.24612 12.5696 4.42171C13.5383 4.1888 21.214 4.24082 22.8187 4.21296C22.5537 10.259 21.8668 13.5076 20.9673 19.4436C25.4564 14.8368 36.7003 2.80436 41.6128 0ZM11.9492 67.8315C14.7518 67.1902 16.0978 67.7213 18.9699 67.7488C22.2476 67.7802 26.1013 67.1391 29.199 68.7352C30.7735 69.5465 33.1979 72.1315 35.0016 71.9672L35.4087 71.6626C35.9258 64.2755 34.4794 55.7912 35.9511 48.4156C36.5136 45.5968 39.8589 44.0555 42.37 43.4192C44.9253 43.4694 47.2215 44.0393 49.0837 45.9174C49.8346 46.6747 50.7139 48.1989 50.8688 49.2699C51.681 54.8868 51.0028 61.1843 51.1149 66.9041C51.1433 68.3564 50.8883 70.0851 51.2945 71.4141C51.384 71.7068 51.8464 72.0666 52.1991 72.0061C54.8065 71.5591 55.8465 68.9091 58.7536 68.1294C62.055 67.244 64.0004 67.8866 67.2902 67.806C69.746 67.7457 72.1007 67.41 74.5394 67.5303C74.4401 59.6692 74.4173 51.8073 74.471 43.9458C73.3133 42.2599 43.3973 12.9209 43.3191 12.9028C39.2114 16.9465 13.6717 41.2734 12.5039 43.6948C11.7052 45.3509 12.0425 48.9279 12.0274 50.8377C11.9831 56.469 12.4396 62.2271 11.9492 67.8315ZM33.3273 75.4787C33.2313 76.4762 33.0791 76.4958 33.4795 77.3243C34.8178 77.7598 51.2719 77.6295 53.4726 77.4598C53.3983 76.5548 53.5415 76.4607 53.0385 75.8455C50.6553 75.2194 36.9289 75.6362 33.3273 75.4787ZM32.7515 79.7949C32.5544 80.4525 32.3687 80.8625 32.5852 81.5131C33.8437 82.3147 51.0301 81.9383 53.6767 81.9143C54.1219 81.2985 53.9827 81.3816 54.0175 80.4944L53.7235 79.9057C52.0514 79.4633 35.8079 79.7783 32.7515 79.7949ZM4.00887 40.9007C6.11329 40.7992 8.21951 40.7393 10.3263 40.7211L34.9372 16.4033C36.1845 15.1706 42.63 8.56109 43.4419 8.12653C50.537 15.2665 57.6692 22.3694 64.8384 29.4349C67.5432 32.1102 73.5469 38.3797 76.3028 40.6184C78.1779 40.6807 80.8618 40.6763 82.6544 40.8655C78.2339 36.7754 45.579 3.59981 43.6426 3.03267C41.5222 3.84483 40.542 4.74966 38.925 6.29738C27.1391 17.5785 15.8537 29.7153 4.00887 40.9007Z"/><path fill="#FFFEFF" fill-opacity="0.027450981" d="M21.4007 55.8769C22.137 55.7152 23.3485 55.3184 23.9545 55.6531L24.1776 56.0209C22.8127 57.7753 23.1243 59.2136 23.0895 61.4479C22.0777 60.8697 22.5159 61.5741 21.6097 61.7432C16.8123 62.6386 16.106 60.8194 16.2623 56.257C17.1999 56.296 18.2624 56.3837 19.1762 56.2159L19.4016 55.8368L21.4007 55.8769Z"/><path fill="#FFFEFF" fill-opacity="0.98823529" d="M65.2404 55.839L68.0756 55.9623L68.2272 55.99C68.8469 55.979 69.0186 55.9636 69.5928 56.2147C70.5415 57.4108 70.5747 59.0869 69.7359 60.2418C65.3912 66.2237 62.5428 60.2284 65.2404 55.839Z"/><path fill="#FFFEFF" fill-opacity="0.97647059" d="M64.5019 47.173C69.6658 45.4079 70.326 48.8049 69.7332 52.9847C68.2024 52.9319 65.7601 53.0679 64.6242 52.1798C63.669 50.8715 64.2568 48.8296 64.5019 47.173Z"/><path fill="#FFFEFF" fill-opacity="0.98039216" d="M28.5159 56.0675C29.2354 55.7026 30.7786 55.8362 31.541 56.0879C31.635 56.1189 31.7282 56.1525 31.8203 56.1887C31.9069 56.3964 32.0712 56.7459 32.091 56.955L31.9837 61.2986C31.9353 61.3163 31.8871 61.3344 31.839 61.3529C29.2674 62.3178 30.0207 62.6124 26.706 61.9644C26.4414 59.0643 25.8501 57.8559 28.5159 56.0675Z"/><path fill="#FFFEFF" fill-opacity="0.031372551" d="M25.0215 48.3042L25.1433 48.5394C25.3177 47.7686 25.1896 47.7574 25.6759 47.3071L25.7659 48.1647L25.9656 48.2384C26.954 46.8651 26.8408 46.8668 28.4997 46.9414C27.3955 47.8526 27.6992 47.4938 27.257 48.8843L27.3865 49.1292C26.5476 49.5997 26.8031 49.3739 26.2818 50.2294C26.3592 52.4541 30.0072 52.2621 31.7406 52.3268C32.1281 51.6446 32.093 51.1175 32.1143 50.3464C32.5773 52.164 32.4433 52.8543 32.5617 54.6677L32.3604 54.944C31.6072 53.5212 26.2818 55.119 24.4244 53.6746C24.9638 51.5823 24.6683 49.57 25.0215 48.3042Z"/><path fill="#FFFEFF" fill-opacity="0.96470588" d="M28.4997 46.9414C29.4169 47.0382 30.7149 47.0619 31.4295 47.5798C32.1194 48.4701 31.9805 49.1772 32.1143 50.3464C32.093 51.1175 32.1281 51.6446 31.7406 52.3268C30.0072 52.2621 26.3592 52.4541 26.2818 50.2294C26.8031 49.3739 26.5476 49.5997 27.3865 49.1292L27.257 48.8843C27.6992 47.4938 27.3955 47.8526 28.4997 46.9414Z"/><path fill="#FFFEFF" fill-opacity="0.92156863" d="M58.5351 55.831C59.2778 56.0888 59.4222 56.1086 60.1782 55.899C60.303 56.1196 60.4026 56.3535 60.4751 56.5964C61.3445 59.5897 59.4574 63.1531 56.2815 61.336C54.6391 59.4822 56.0418 57.4173 57.5468 56.0493C57.6378 56.0003 58.379 55.8626 58.5351 55.831Z"/><path fill="#FFFEFF" fill-opacity="0.027450981" d="M61.2239 49.6487C61.5025 49.2695 63.9949 47.3253 64.5019 47.173C64.2568 48.8296 63.669 50.8715 64.6242 52.1798C65.7601 53.0679 68.2024 52.9319 69.7332 52.9847C69.379 54.2905 68.2375 54.0603 68.2272 55.99L68.0756 55.9623C66.7282 53.6626 64.8291 54.2036 62.3794 54.2127C62.7019 53.0076 63.2106 50.4093 62.2803 49.4706C61.8742 49.4842 61.6122 49.5566 61.2239 49.6487Z"/><path d="M23.9039 53.8091L24.4244 53.6746C26.2818 55.119 31.6072 53.5212 32.3604 54.944L32.091 56.955C32.0712 56.7459 31.9069 56.3964 31.8203 56.1887C31.7282 56.1525 31.635 56.1189 31.541 56.0879C30.7786 55.8362 29.2354 55.7026 28.5159 56.0675C26.875 56.0542 26.1771 55.2201 24.6974 55.8803L24.1776 56.0209L23.9545 55.6531C23.3485 55.3184 22.137 55.7152 21.4007 55.8769C21.7697 55.0545 21.9848 54.9151 22.7158 54.3738L22.3393 54.1628L23.9039 53.8091Z"/><path d="M61.2239 49.6487C61.6122 49.5566 61.8742 49.4842 62.2803 49.4706C63.2106 50.4093 62.7019 53.0076 62.3794 54.2127L61.8585 54.317L61.7883 54.7455L62.1274 55.1266L62.7425 54.9598L63.0027 55.3465C60.9688 56.2814 61.6909 55.0578 60.1782 55.899C59.4222 56.1086 59.2778 56.0888 58.5351 55.831L59.24 55.3378L59.1805 54.9141C58.3278 54.6106 57.8437 54.5196 56.9729 54.3579C58.1698 54.2829 60.3225 54.4775 61.1693 54.1455C61.5041 53.603 61.065 51.1015 61.2239 49.6487Z"/><path d="M24.6974 55.8803C25.0667 57.4302 25.1113 61.7271 24.2365 63.0096L23.7903 63.0023C23.3134 62.3912 23.2744 62.204 23.0895 61.4479C23.1243 59.2136 22.8127 57.7753 24.1776 56.0209L24.6974 55.8803Z"/><defs><linearGradient id="gradient_0" gradientUnits="userSpaceOnUse" x1="18.287518" y1="54.213715" x2="18.509531" y2="55.574699"><stop offset="0" stop-color="black" stop-opacity="0.96470588"/><stop offset="1" stop-color="#010000"/></linearGradient></defs><path fill="url(#gradient_0)" d="M13.1622 54.9033C16.0109 54.1577 19.3367 54.2742 22.3393 54.1628L22.7158 54.3738C21.9848 54.9151 21.7697 55.0545 21.4007 55.8769L19.4016 55.8368C17.4869 55.7029 14.9497 55.4925 13.1622 54.9033Z"/><path d="M63.0027 55.3465L62.7425 54.9598L62.1274 55.1266L61.7883 54.7455L61.8585 54.317L62.3794 54.2127C64.8291 54.2036 66.7282 53.6626 68.0756 55.9623L65.2404 55.839C64.3385 55.7211 63.8581 55.5904 63.0027 55.3465Z"/><path d="M57.5468 56.0493C56.1956 55.886 54.3951 55.8511 53.4457 54.9213L53.5948 54.559C54.5259 54.1181 55.9035 54.303 56.9729 54.3579C57.8437 54.5196 58.3278 54.6106 59.1805 54.9141L59.24 55.3378L58.5351 55.831C58.379 55.8626 57.6378 56.0003 57.5468 56.0493Z"/><path d="M23.9039 53.8091C24.2421 51.9907 22.9862 47.8986 24.1683 46.8895C24.7812 47.3416 24.704 47.5143 25.0215 48.3042C24.6683 49.57 24.9638 51.5823 24.4244 53.6746L23.9039 53.8091Z"/></svg>