<?xml version="1.0" encoding="utf-8" ?><svg xmlns="http://www.w3.org/2000/svg" xmlns:xlink="http://www.w3.org/1999/xlink" width="80" height="86" viewBox="0 0 80 86"><path fill="#FFFEFF" d="M34.7027 0L44.6727 0C46.3317 1.97591 46.5585 2.2179 46.8636 4.73833C51.0778 6.14341 54.1065 7.18181 57.9433 9.44263C59.7594 8.91312 64.4456 8.96643 66.4197 9.11536C72.2731 9.55697 70.0739 20.5348 70.9008 24.0664C71.6628 27.3212 72.7808 29.5601 73.2703 32.9782C79.853 33.0061 78.3582 36.3436 79.4512 41.6721C80.6223 47.3818 76.7328 47.1225 72.4741 46.9997L72.2439 46.993C71.4977 50.9008 69.1076 55.1859 66.7519 58.3764C68.9748 69.2079 70.4582 71.1023 58.5911 70.9983L58.4952 71.2067C59.9889 73.9586 62.0554 76.3207 63.6471 78.9224C65.3729 81.7432 69.1289 81.2637 67.5716 84.9236C65.6306 85.5526 55.4694 85.3061 52.7285 85.3035L31.1187 85.3054C27.1429 85.3107 16.1799 85.6375 12.768 85.2787C11.8831 84.6823 12.0493 84.9714 11.8122 84.0854C12.2702 81.6554 21.3573 73.0317 20.8063 70.9708C18.5985 70.4507 13.8623 72.1551 11.9559 69.3214C10.6692 67.4089 12.0975 60.9417 12.6342 58.6998C12.6561 58.6086 12.6785 58.5175 12.7016 58.4266C10.8631 56.1698 7.78761 50.0204 7.25697 47.0376C4.94753 47.0576 2.08404 47.4131 0.388447 45.7411C0.255902 45.6102 0.126385 45.4763 0 45.3395L0 41.3341C0.616071 40.325 0.738788 37.3878 0.952935 36.3193C1.79023 32.1417 3.02134 33.6459 5.91303 32.6241C6.2159 32.5171 6.64539 30.7694 6.77975 30.234C7.25366 28.153 8.45474 25.7491 8.6877 23.6543C9.09895 19.9563 7.94582 11.9339 11.4751 9.63357C13.254 8.47403 19.3009 8.98574 21.3066 9.54074C22.9685 8.63524 24.6704 7.80504 26.407 7.05266C27.79 6.46427 31.4043 5.2418 32.5454 4.61548C33.3224 4.18897 32.9354 1.85689 34.7027 0ZM32.3705 71.0048C31.111 73.7115 28.9269 78.7578 27.3916 81.1172C29.4064 80.8372 30.6625 80.8843 32.6875 80.9264C37.0245 80.921 48.3975 80.6404 52.2252 80.9899C50.3739 78.6108 47.8948 71.3563 46.5853 71.12C42.6323 72.2027 36.4189 71.8843 32.3705 71.0048ZM24.6876 36.7173C26.1871 36.7493 28.5258 36.8661 29.9566 36.7327C30.4231 36.2424 31.2898 35.3836 31.6593 34.8685L32.0632 30.0493C34.8277 29.8141 36.3451 29.9704 38.8276 28.7147C38.3144 26.273 38.8663 21.8891 37.8999 21.0478L36.8735 21.0406C28.1642 23.1095 24.4629 27.6418 22.8429 36.1656L22.9711 36.5983C23.6348 36.6967 24.0158 36.711 24.6876 36.7173ZM47.9477 30.0408C47.7692 38.1624 49.4303 36.8953 56.8465 36.7584C55.8069 31.1216 54.3742 27.3632 49.4241 23.786C47.2328 22.2024 43.6889 20.9238 40.9754 20.9532C41.0434 28.5677 39.4742 29.8088 47.9477 30.0408ZM34.5378 40.8077C34.4379 41.8999 34.2157 42.2438 34.6753 43.0825C35.9573 43.6663 36.9788 43.6271 38.1861 44.1793C38.6485 44.3908 39.423 45.3115 39.7531 45.5364C40.5848 44.8265 41.4447 44.1219 42.2022 43.3347L45.1147 43.3751C45.1634 42.3338 45.1921 40.8969 45.3552 39.9028C45.9547 39.2846 46.587 38.5995 47.2471 38.0545C45.153 36.1097 45.4349 35.4531 44.7929 32.6137C40.5902 32.5434 42.089 32.0924 39.5776 30.1294C37.4387 33.4561 36.5763 31.5456 34.737 32.9128C34.0044 34.3665 34.2732 35.8926 33.1996 37.0184C32.0453 38.2287 33.7284 39.8638 34.5378 40.8077ZM55.1281 81.0829C56.9122 81.0217 58.7668 80.9298 60.5466 80.9571L61.137 80.7954C61.1439 80.6607 61.1522 80.4971 61.1621 80.3044C56.614 73.7863 51.4668 66.2473 47.3211 59.5637C45.3854 56.4431 44.0444 50.8292 42.5644 47.2854C42.4239 47.1976 41.9733 46.9046 41.8516 46.8568C41.3199 47.346 40.6766 47.8201 40.549 48.5226C40.7354 50.3569 41.7536 52.4012 42.3534 54.1465C45.4644 63.1984 51.577 72.4006 55.1281 81.0829ZM19.9375 80.924L24.5123 80.9763C26.474 75.3807 40.2207 51.2867 38.6198 47.7497C38.1948 47.4266 37.713 47.0249 37.23 46.821C35.4467 50.8782 34.519 55.5613 32.1459 59.6828C30.67 62.246 18.5073 80.0464 18.5089 80.6189C19.0298 81.0798 19.0408 80.9215 19.9375 80.924ZM32.1775 53.1285L33.2433 50.6835C33.7552 49.371 34.5636 47.6078 34.5772 46.2449L34.3559 45.8062C33.2368 46.0177 33.0417 46.1904 32.2259 45.6467C31.143 44.0904 33.2686 39.9957 28.9177 39.3627C27.2456 39.1194 24.6314 39.3267 22.7412 39.2287C23.9008 46.5629 26.2485 49.1828 32.1775 53.1285ZM47.983 45.9542L44.1987 46.0248C45.4809 48.1139 46.4322 52.5547 47.7555 52.9L48.1509 52.7668C53.7187 48.6463 55.5808 45.9765 56.6753 39.0707C54.9842 39.2199 53.2895 39.3245 51.5929 39.3845C46.3533 39.4779 48.1335 42.2365 47.983 45.9542ZM26.551 56.7904C27.3946 56.597 28.8048 56.3805 29.3845 55.835C28.6659 55.0311 27.2259 54.3362 26.2589 53.5166C25.3318 52.7307 22.642 48.9803 21.9732 48.7913C21.3582 50.8351 20.2866 54.8308 19.3047 56.5331C21.5295 56.3379 25.6549 57.0567 26.551 56.7904ZM45.8441 67.8769C44.4899 66.015 43.5397 63.3278 42.49 61.2508C41.1486 58.5966 41.7185 58.3354 38.5878 58.4767C36.7718 61.5877 35.446 65.2346 33.6903 68.2458C36.4391 68.4611 38.5507 68.5111 41.3125 68.5009C43 68.374 44.1968 68.1716 45.8441 67.8769ZM14.2544 36.263C14.5766 38.0191 14.6225 40.225 16.4096 40.9846C17.5965 41.6181 18.6732 42.1779 19.8939 42.7426C19.4918 41.2168 19.2009 33.7112 19.2332 33.7606C17.9113 34.4361 15.4203 35.5663 14.2544 36.263ZM59.7244 42.7878C60.5135 42.3884 62.3857 41.5022 63.0492 41.063C64.8263 39.8542 64.799 38.5388 65.2344 36.3793C63.7777 35.4887 61.5381 34.2042 59.8788 33.8487C60.4709 37.5868 60.5623 39.0299 59.7244 42.7878ZM34.5963 18.1779C36.0192 17.974 39.9977 17.2293 41.059 17.6413C42.4496 17.8251 43.4806 17.9197 44.8816 17.9792C43.8625 16.4927 43.406 15.6448 42.6016 14.0656C41.1476 14.0715 39.3323 14.0287 37.9087 14.1223C36.0576 14.702 35.6967 16.3141 34.5963 18.1779ZM26.8168 16.895C28.4826 17.3929 30.1527 17.8762 31.827 18.3448C34.7504 14.0369 32.774 15.0616 31.962 10.6056C31.8259 9.85881 32.2612 9.41262 31.7112 8.83774C28.5765 9.45153 25.7171 10.5621 23.1419 12.5089C23.274 13.4868 23.4824 14.7777 23.525 15.7334C24.6538 16.1813 25.6378 16.5951 26.8168 16.895ZM27.917 59.1003C27.1182 59.3056 26.39 59.4841 25.5786 59.6503C25.7909 60.7857 26.0634 61.7141 26.385 62.8234C26.4764 62.83 26.7149 62.8607 26.7808 62.8306C27.4341 61.9598 28.8961 60.1554 28.9885 59.1035C28.5332 58.8682 28.5034 58.98 27.917 59.1003ZM52.7882 56.8612C55.2586 56.8172 57.9893 56.2565 60.2155 56.4074C59.3376 54.6663 58.0058 49.1579 57.4213 48.6761C54.8124 51.993 53.3269 53.7739 49.605 55.9151C50.6191 56.2198 51.777 56.5994 52.7882 56.8612ZM24.0768 18.578C24.2107 22.1498 24.111 22.6949 20.6786 23.9055C20.9757 25.2332 21.2927 26.8588 21.7389 28.1185C22.3245 27.3727 22.9378 26.6133 23.4967 25.8497C25.5111 23.2757 26.7584 21.94 29.5994 20.262L24.0768 18.578ZM56.0322 25.8812C56.4432 26.4517 57.035 27.4831 57.6666 27.6105C58.0754 27.1643 58.6956 24.6113 58.5729 24.019C57.7157 23.4958 56.8052 22.969 56.0019 22.3337C55.2314 21.7244 55.5428 18.8373 55.3046 18.6208C53.6275 19.1669 51.732 19.8319 50.0572 20.316C52.3389 21.7666 54.5499 23.5946 56.0322 25.8812ZM47.5915 8.95754C47.6345 10.7976 47.7676 12.1505 46.3964 13.583C46.1159 13.8731 45.8266 14.1546 45.5289 14.4271L47.7012 18.7414C49.7896 17.6737 50.027 17.8602 52.0704 17.1934C55.6492 16.1071 56.1327 16.5108 56.4155 12.5804C54.0458 10.9867 50.5498 8.83525 47.5915 8.95754ZM15.6328 43.4958C15.415 46.8383 13.246 46.936 10.5659 47.2658C11.8429 50.2094 13.3543 54.1943 15.8091 56.2817L16.3688 56.5808C17.4221 55.9383 18.0062 52.3954 18.3998 51.1847C20.0247 46.1861 20.7354 45.5524 15.6328 43.4958ZM63.4388 43.4771C62.6292 43.9499 59.9673 45.2922 59.6031 45.9049C59.8133 47.8078 61.6744 55.1046 63.0764 56.3476C63.7543 56.4535 63.8647 56.3138 64.4033 55.8371C65.3894 54.4813 68.7902 48.7097 68.65 47.3309C67.6352 47.0945 66.3738 46.9601 65.4434 46.6106C64.3369 46.1949 64.3415 43.9832 63.4388 43.4771ZM13.003 23.4983C10.8936 26.8877 10.7983 29.9368 9.2828 32.8681C12.1436 33.0266 13.1312 33.869 15.1159 32.7381C17.0039 31.9471 18.2966 31.4416 20.0347 30.3444C19.3037 28.6403 18.3769 25.2834 18.0195 23.4197C16.228 23.5323 14.8054 23.6512 13.003 23.4983ZM61.6592 23.4979C61.1368 25.2901 60.218 28.6958 59.4775 30.3542C62.2325 31.8713 64.9804 33.9423 67.9434 33.144C68.5731 33.0674 69.0988 32.9891 69.7218 32.8695C70.1467 31.4656 67.4115 24.984 66.6409 23.3951C64.7537 23.5475 63.5617 23.6709 61.6592 23.4979Z"/></svg>