<?xml version="1.0" encoding="utf-8" ?><svg xmlns="http://www.w3.org/2000/svg" xmlns:xlink="http://www.w3.org/1999/xlink" width="68" height="86" viewBox="0 0 68 86"><path fill="#FEFDFE" d="M0 0L49.5842 0C50.911 1.57156 54.2476 4.70003 55.8387 6.15908C59.7131 9.71196 63.5435 13.4848 67.3898 17.0323C67.1364 24.2333 67.5125 83.3736 66.8753 84.97C64.6935 85.503 48.5305 85.3361 45.2953 85.3017C30.2547 85.1414 15.006 85.5017 0 85.3599L0 0ZM64.0582 81.5574C63.7468 62.9264 64.2222 44.1903 63.9295 25.5498C63.9039 23.9183 63.753 22.0444 63.9074 20.4392C60.0365 20.6237 49.591 20.8591 45.9183 20.5822C45.854 18.1068 45.8302 15.5199 45.8854 13.0436C45.9569 9.84042 45.6256 6.46995 45.7517 3.30078C43.0443 3.6458 30.6249 3.57087 27.0462 3.47585C20.3761 3.29876 9.9803 3.87279 3.64596 3.359C3.31151 4.77585 3.52148 15.9497 3.52881 18.2685L3.51738 62.8642L3.53178 74.8301C3.53486 76.6231 3.63258 80.4211 3.32274 81.984L49.0173 81.9876C52.3277 81.9879 59.7889 81.9255 63.4996 82.1584C63.5268 82.1601 63.9039 81.9481 63.965 81.9164L64.0582 81.5574ZM49.0076 17.363C51.1971 17.1499 60.1667 17.0297 62.1364 17.4746C62.1312 17.3076 62.1251 17.1071 62.1179 16.873C59.5987 14.2979 56.4746 11.2998 53.8983 8.8922C52.6916 7.76452 50.0811 5.10948 49.1928 4.85367C49.4547 8.00785 49.471 14.2918 49.0076 17.363Z"/><path fill="#FEFDFE" d="M18.8534 26.6388C22.635 26.3872 27.8577 26.5227 31.7344 26.5214L53.3946 26.5577C53.3007 27.5858 53.3622 28.4443 53.4142 29.4728C51.7683 29.6396 49.8708 29.7053 48.1988 29.7981C44.0827 29.986 19.7461 30.4349 14.2691 29.107C14.2691 29.107 14.0311 28.7089 13.9874 28.6359C14.1394 26.292 17.1919 26.6533 18.8534 26.6388Z"/><path fill="#FEFDFE" d="M16.4981 36.6359C28.0336 36.1101 40.0592 36.7009 51.6285 36.6212C52.1165 36.6178 52.7302 36.7672 53.1048 37.0907C53.2644 38.0012 53.3214 38.2647 53.1095 39.1828C52.5243 39.6702 50.9836 39.594 50.0631 39.6537C45.6208 39.9498 16.1677 40.4803 14.5731 39.3031C14.337 39.1289 14.1961 38.8444 14.1611 38.5522C14.0873 37.936 14.2881 37.2958 14.6633 36.8346C15.3738 36.7085 15.789 36.6745 16.4981 36.6359Z"/><path fill="#FEFDFE" d="M16.4502 46.6362C22.1578 46.2909 29.6367 46.5315 35.4544 46.5051C40.477 46.4823 48.3324 46.3127 53.1096 46.8028C53.1493 47.6214 53.3371 48.5611 52.8719 49.2348C52.2345 49.6995 50.8967 49.6128 50.0567 49.6274C45.9168 49.9446 20.0589 50.5274 14.4357 49.1558C14.4357 49.1558 14.2231 48.7694 14.1755 48.6829C14.2632 46.62 14.3923 46.7099 16.4502 46.6362Z"/><path fill="#FEFDFE" d="M16.3668 56.6342C20.6432 56.437 49.6113 56.1332 51.6566 56.7334C52.1929 56.8908 52.753 57.201 53.0153 57.7179C53.3034 58.2855 53.2658 58.6903 53.0776 59.2519C52.4583 59.6076 50.5076 59.5586 49.6882 59.581C41.3294 60.2514 23.8764 60.0039 14.9587 59.5281C14.5041 59.5038 14.3271 59.0441 14.1514 58.688C14.2607 56.664 14.3201 56.7094 16.3668 56.6342Z"/><path fill="#FEFDFE" d="M17.9115 66.6057C20.5231 66.4566 31.3806 65.9578 32.7544 67.6663C32.8376 68.5218 32.8882 68.2107 32.4217 69.0082C31.7481 69.4258 29.9391 69.3132 29.0569 69.3161C24.9519 69.5772 20.5802 69.5929 16.4599 69.4387C15.4194 69.3998 14.5841 69.3297 14.1733 68.3313C14.6006 66.1354 15.6644 66.6744 17.9115 66.6057Z"/></svg>