<?xml version="1.0" encoding="utf-8" ?><svg xmlns="http://www.w3.org/2000/svg" xmlns:xlink="http://www.w3.org/1999/xlink" width="68" height="86" viewBox="0 0 68 86"><path fill="#00D2FF" transform="scale(0.0664062 0.0664093)" d="M0 0L746.68 0C766.66 23.6648 816.905 70.7737 840.865 92.7443C899.209 146.244 956.89 203.056 1014.81 256.475C1011 364.908 1016.66 1255.45 1007.06 1279.49C974.208 1287.52 730.812 1285 682.094 1284.48C455.6 1282.07 225.973 1287.5 0 1285.36L0 0ZM964.641 1228.1C959.952 947.555 967.111 665.424 962.703 384.732C962.318 360.165 960.045 331.948 962.37 307.776C904.079 310.555 746.782 314.099 691.476 309.93C690.507 272.655 690.149 233.701 690.98 196.412C692.057 148.178 687.068 97.4254 688.967 49.7036C648.197 54.899 461.175 53.7707 407.284 52.3398C306.84 49.6732 150.292 58.317 54.9039 50.5803C49.8674 71.9154 53.0293 240.173 53.1397 275.09L52.9676 946.618L53.1845 1126.8C53.2308 1153.8 54.7024 1210.99 50.0366 1234.53L738.143 1234.58C787.994 1234.59 900.35 1233.65 956.229 1237.15C956.639 1237.18 962.318 1233.99 963.238 1233.51L964.641 1228.1ZM737.997 261.454C770.968 258.246 906.04 256.436 935.701 263.135C935.623 260.62 935.531 257.601 935.422 254.076C897.486 215.3 850.441 170.154 811.645 133.9C793.474 116.919 754.162 76.9393 740.786 73.0872C744.73 120.583 744.975 215.208 737.997 261.454Z"/><path fill="#00D2FF" transform="scale(0.0664062 0.0664093)" d="M283.91 401.131C340.856 397.342 419.504 399.383 477.883 399.363L804.06 399.91C802.646 415.391 803.572 428.318 804.355 443.806C779.57 446.317 750.996 447.307 725.817 448.704C663.834 451.533 297.353 458.293 214.876 438.297C214.876 438.297 211.292 432.303 210.634 431.203C212.923 395.909 258.89 401.349 283.91 401.131Z"/><path fill="#00D2FF" transform="scale(0.0664062 0.0664093)" d="M248.442 551.668C422.153 543.751 603.244 552.647 777.464 551.447C784.813 551.396 794.055 553.646 799.696 558.517C802.099 572.227 802.958 576.195 799.767 590.02C790.954 597.359 767.753 596.212 753.891 597.111C686.996 601.57 243.467 609.558 219.454 591.832C215.898 589.208 213.777 584.924 213.25 580.524C212.138 571.246 215.162 561.605 220.812 554.661C231.511 552.762 237.764 552.25 248.442 551.668Z"/><path fill="#00D2FF" transform="scale(0.0664062 0.0664093)" d="M247.721 702.254C333.67 697.055 446.294 700.678 533.902 700.28C609.536 699.937 727.829 697.383 799.768 704.763C800.366 717.09 803.194 731.24 796.189 741.384C786.59 748.382 766.444 747.076 753.795 747.296C691.453 752.073 302.063 760.849 217.385 740.195C217.385 740.195 214.183 734.376 213.466 733.074C214.787 702.01 216.731 703.364 247.721 702.254Z"/><path fill="#00D2FF" transform="scale(0.0664062 0.0664093)" d="M246.465 852.806C310.862 849.836 747.088 845.262 777.888 854.299C785.964 856.67 794.398 861.341 798.348 869.124C802.686 877.671 802.12 883.767 799.286 892.223C789.96 897.58 760.585 896.842 748.246 897.179C622.372 907.274 359.551 903.547 225.26 896.382C218.415 896.017 215.749 889.094 213.103 883.732C214.749 853.254 215.644 853.938 246.465 852.806Z"/><path fill="#00D2FF" transform="scale(0.0664062 0.0664093)" d="M269.726 1002.96C309.054 1000.71 472.555 993.202 493.243 1018.93C494.496 1031.81 495.258 1027.13 488.233 1039.14C478.089 1045.42 450.848 1043.73 437.563 1043.77C375.746 1047.7 309.914 1047.94 247.867 1045.62C232.198 1045.03 219.619 1043.98 213.433 1028.94C219.868 995.876 235.887 1003.99 269.726 1002.96Z"/></svg>