<?xml version="1.0" encoding="utf-8" ?><svg xmlns="http://www.w3.org/2000/svg" xmlns:xlink="http://www.w3.org/1999/xlink" width="86" height="86" viewBox="0 0 86 86"><path fill="white" d="M4.83494 0L80.3345 0C81.9662 0.957875 84.7394 2.73003 85.0316 4.69448C85.5682 8.30161 85.3224 13.2398 85.3061 16.9252L85.3028 34.9047L85.3149 64.8368C85.3171 69.3448 85.3424 73.8483 85.3672 78.3992C85.3838 81.4312 82.7637 84.5097 79.8223 85.2136C77.9994 85.6497 75.3327 85.3056 73.4257 85.403C72.1859 85.4272 70.8889 85.3798 69.6506 85.3703L53.0548 85.3415L22.1034 85.3439C17.7197 85.3481 13.3257 85.4721 8.94236 85.4469C4.27673 85.4201 2.25599 84.2672 0 80.1795L0 5.2487C1.83581 2.24812 1.81373 1.94825 4.83494 0ZM11.4694 27.2067C17.4458 32.2292 23.3024 37.3926 29.0343 42.6926C28.9718 40.4811 28.3976 32.8517 29.6693 31.5055C34.3358 31.2861 55.7794 31.0812 59.3777 32.2052C64.8619 34.4939 63.4063 35.8839 64.3949 39.9419C64.771 41.4856 69.7978 45.3746 71.3835 47.1497C72.6748 41.4178 73.5309 35.2523 70.1636 29.9398C67.9974 26.571 64.5804 24.2019 60.6659 23.3547C57.3165 22.6072 50.7036 22.7653 47.0661 22.7847C41.0509 22.8486 35.0352 22.8611 29.0198 22.8223C28.9579 21.2369 28.9025 12.6739 28.4042 12.1604C26.1018 14.7547 21.7113 18.2987 19.0565 20.7399C17.5487 22.1263 12.9958 26.2279 11.4694 27.2067ZM13.8511 38.7782C11.0293 46.7063 13.2597 58.8985 22.6165 61.1771C33.1016 63.7305 45.8232 62.0988 56.6758 62.2557C56.4014 65.8256 56.8141 70.73 56.0146 73.8817C59.6876 70.1819 66.8015 63.6188 70.8444 60.4831L73.407 57.998C68.2601 53.0856 61.0812 47.4012 56.4172 42.7151C56.6079 46.1129 56.3987 50.9152 56.7437 53.9863C51.0268 53.8216 45.3073 53.7684 39.5883 53.8269C37.3121 53.8414 34.9691 53.9315 32.6955 53.8898C24.8245 53.7453 21.5144 53.3924 20.9088 44.9037C20.0265 43.8909 14.8954 38.8764 13.8511 38.7782Z"/></svg>