<?xml version="1.0" encoding="utf-8" ?><svg xmlns="http://www.w3.org/2000/svg" xmlns:xlink="http://www.w3.org/1999/xlink" width="91" height="86" viewBox="0 0 91 86"><path fill="#FF7B00" transform="scale(0.0839483 0.0839844)" d="M647.147 0L692.794 0C736.378 23.3224 762.849 74.6615 789.709 115.227L889.786 267.797C939.375 343.754 990.639 418.562 1039.11 495.624C1093.28 581.733 1081.91 701.36 1072.15 798.499C1071.17 808.243 1064.65 825.133 1060.16 834.347C1016.29 903.282 922.024 921.096 852.136 953.919C802.271 973.044 709.648 1019.41 658.412 1016.49C592.218 1010.62 525.378 998.123 459.493 988.429C390.317 978.251 318.193 969.879 250.125 956.036C220.087 949.927 123.271 907.375 107.323 882.865C72.8024 829.815 48.341 759.829 20.1488 702.35C15.8413 693.6 3.41311 662.657 0 657.939L0 601.93C3.47591 597.309 3.66326 594.466 5.73734 589.494C38.5948 510.721 86.3173 432.045 132.063 360.241C178.362 287.568 281.336 257.416 343.667 199.863C397.148 150.482 438.938 86.7597 498.707 44.8035C536.176 18.1162 614.945 20.631 647.147 0ZM606.505 120.322C608.424 172.089 617.425 225.762 615.188 277.308C613.85 308.131 565.061 539.78 551.097 554.779C545.331 560.975 539.315 563.661 531.179 565.452C521.287 563.386 524.215 565.31 518.391 557.104C513.26 517.183 563.823 355.845 569.138 304.446C575.609 241.876 570.913 214.12 564.682 152.463C517.365 167.185 466.899 174.153 421.207 191.573C391.77 204.575 376.708 231.503 350.628 250.323C306.184 282.394 242.608 308.141 201.781 343.597C149.908 388.648 107.636 488.867 69.0571 547.692C50.0727 576.639 33.7574 629.679 45.6695 662.293C57.4129 695.002 72.4219 722.313 87.8591 753.538C104.715 787.631 122.692 825.567 137.156 860.747C179.194 884.673 239.724 918.035 287.995 923.692C315.52 926.918 415.066 948.536 435.594 941.695L434.579 744.93L434.973 700.233C384.426 672.104 333.585 644.506 282.457 617.442C250.307 600.204 201.893 576.37 174.865 554.46C178.398 544.943 181.732 532.33 189.658 526.54C197.867 525.526 456.521 663.796 476.517 677.975C476.922 767.673 478.63 864.397 476.641 953.835C534.711 963.928 611.231 975.485 669.331 977.01C685.985 927.161 708.382 841.495 734.416 799.288C759.429 758.734 980.09 634.741 1037.22 592.944C1029.97 573.882 1014.98 532.116 1005.54 517.266C958.559 443.372 909.844 370.427 861.598 297.324C810.796 220.353 760.656 142.853 709.031 66.4587C700.273 53.4979 688.645 37.33 672.327 34.8235C656.575 48.3977 616.316 101.673 606.505 120.322ZM722.018 963.632C787.273 937.751 861.892 905.599 927.262 881.487C1060.9 832.188 1034 767.201 1037.97 642.562L1035.52 639.931C994.88 663.082 786.261 795.166 768.461 822.846C751.324 849.495 732.072 922.868 718.044 957.271L719.383 963.185L722.018 963.632Z"/><path fill="#FF7B00" transform="scale(0.0839483 0.0839844)" d="M576.002 612.259C593.142 613.231 686.969 720.222 713.534 742.374C706.326 750.423 700.239 759.295 693.954 768.079C675.451 772.071 574.082 657.408 555.227 637.401L576.002 612.259Z"/></svg>