<?xml version="1.0" encoding="utf-8" ?><svg xmlns="http://www.w3.org/2000/svg" xmlns:xlink="http://www.w3.org/1999/xlink" width="91" height="86" viewBox="0 0 91 86"><path fill="#FEFDFE" d="M54.3269 0L58.1589 0C61.8177 1.95872 64.0399 6.2704 66.2948 9.67725L74.6961 22.4908C78.859 28.87 83.1625 35.1527 87.2319 41.6247C91.779 48.8565 90.8248 58.9033 90.0053 67.0614C89.9231 67.8798 89.3754 69.2983 88.9986 70.0721C85.3159 75.8616 77.4024 77.3577 71.5354 80.1143C67.3493 81.7205 59.5738 85.6142 55.2726 85.3689C49.7157 84.8762 44.1046 83.8267 38.5737 83.0126C32.7665 82.1578 26.7118 81.4547 20.9976 80.2921C18.4759 79.779 10.3484 76.2053 9.0096 74.1469C6.11164 69.6915 4.05815 63.8138 1.69146 58.9864C1.32985 58.2516 0.286525 55.6528 0 55.2566L0 50.5527C0.291797 50.1646 0.307525 49.9259 0.48164 49.5083C3.23997 42.8926 7.24619 36.285 11.0865 30.2546C14.9732 24.1512 23.6177 21.6189 28.8503 16.7854C33.3399 12.6381 36.8481 7.28646 41.8656 3.76279C45.0111 1.52148 51.6236 1.73268 54.3269 0ZM50.9151 10.1052C51.0762 14.4528 51.8318 18.9605 51.644 23.2895C51.5317 25.8782 47.4359 45.3331 46.2637 46.5928C45.7796 47.1131 45.2746 47.3387 44.5916 47.4891C43.7612 47.3156 44.007 47.4772 43.5181 46.788C43.0873 43.4353 47.332 29.8854 47.7782 25.5687C48.3214 20.3138 47.9272 17.9827 47.4041 12.8045C43.4319 14.0409 39.1954 14.6261 35.3596 16.0891C32.8884 17.1811 31.624 19.4426 29.4346 21.0232C25.7036 23.7167 20.3665 25.879 16.9392 28.8568C12.5845 32.6404 9.0359 41.0572 5.79723 45.9976C4.20352 48.4287 2.83388 52.8832 3.83388 55.6223C4.81972 58.3693 6.0797 60.663 7.37563 63.2854C8.79066 66.1487 10.2998 69.3347 11.514 72.2893C15.043 74.2987 20.1244 77.1006 24.1767 77.5757C26.4874 77.8466 34.8441 79.6622 36.5674 79.0877L36.4822 62.5625L36.5153 58.8086C32.2719 56.4462 28.0039 54.1284 23.7118 51.8555C21.0129 50.4078 16.9486 48.4061 14.6796 46.566C14.9762 45.7667 15.2561 44.7074 15.9215 44.2211C16.6106 44.136 38.3242 55.7485 40.0028 56.9393C40.0368 64.4725 40.1802 72.5958 40.0132 80.1072C44.8881 80.9549 51.3118 81.9255 56.1892 82.0536C57.5873 77.867 59.4675 70.6724 61.653 67.1277C63.7528 63.7218 82.2769 53.3083 87.073 49.798C86.4639 48.1971 85.2059 44.6894 84.4137 43.4423C80.4694 37.2363 76.3799 31.1101 72.3297 24.9706C68.065 18.5062 63.8558 11.9974 59.522 5.58149C58.7868 4.49299 57.8106 3.13514 56.4407 2.92463C55.1184 4.06465 51.7387 8.53895 50.9151 10.1052ZM60.6122 80.93C66.0903 78.7564 72.3544 76.0562 77.8421 74.0311C89.0612 69.8908 86.8029 64.4329 87.1361 53.9652L86.9303 53.7442C83.5185 55.6885 66.0053 66.7815 64.511 69.1062C63.0724 71.3443 61.4562 77.5065 60.2786 80.3958L60.391 80.8925L60.6122 80.93Z"/><path fill="#FEFDFE" d="M48.3544 51.4202C49.7933 51.5018 57.6699 60.4874 59.9 62.3478C59.2949 63.0238 58.7839 63.7689 58.2563 64.5066C56.703 64.8419 48.1932 55.212 46.6104 53.5317L48.3544 51.4202Z"/></svg>