<?xml version="1.0" encoding="utf-8" ?><svg xmlns="http://www.w3.org/2000/svg" xmlns:xlink="http://www.w3.org/1999/xlink" width="98" height="74" viewBox="0 0 98 74"><path fill="#8B8FA8" d="M35.8084 0L43.2452 0C45.7181 1.17357 46.4995 1.22202 48.7791 2.90128C50.5016 1.7024 53.5965 0.348528 54.0549 0L61.6606 0C63.109 0.571269 64.3872 0.651364 65.9436 0.853738C72.9904 1.77 80.3047 2.5942 87.1747 4.41406C88.7752 4.83802 89.939 5.75049 91.0911 6.86454C93.2912 7.17355 95.9787 7.32208 98 8.13484L98 72.8487C95.1188 73.0411 91.8993 72.2467 88.7772 72.0187C77.8991 71.2244 66.8614 70.056 55.9755 69.4037C51.2987 73.8336 46.1902 75.0493 41.9165 69.3496C30.971 70.1277 19.9869 71.2659 9.0494 72.1112C7.5139 72.2298 0.919931 72.9942 0 72.9596L0 7.53256L6.62979 7.11683L8.7995 4.72802C13.7221 3.13125 22.2924 2.35115 27.625 1.3269C29.6779 0.93261 34.1079 0.833736 35.8084 0ZM79.2036 55.1031C80.4627 55.357 84.8594 56.4141 85.7527 55.8842C86.0812 53.4008 85.895 46.9177 85.8933 44.0378L85.8894 18.2434C85.8821 15.1095 85.579 9.83405 85.768 7.02633C83.3518 6.91293 80.7542 6.27996 78.342 5.89164C71.7489 4.83028 64.4306 3.069 57.7696 3.10503C54.9833 3.45656 50.6248 3.42563 50.4995 7.12239C50.3822 10.5833 50.4333 14.0461 50.4425 17.5099L50.4823 40.2624C50.4859 44.8572 50.7058 49.7173 50.2255 54.2395L50.4661 54.4063C51.3678 54.0014 53.4295 52.9124 54.1621 52.6967C61.0112 50.6793 66.565 52.3262 73.2153 53.9183C74.9256 54.3277 77.5738 54.9989 79.2036 55.1031ZM11.735 7.21623C12.1363 18.7284 11.5899 30.8037 11.8164 42.3657C11.8702 45.112 11.6309 53.5413 11.9383 55.9498C13.8219 56.1412 19.1915 54.9863 21.2881 54.5977C31.2802 52.651 37.8271 49.3319 47.3641 54.6334C46.8551 52.1886 47.0291 44.0798 47.0323 41.2523L47.0721 16.1562C47.0787 12.9011 47.1734 9.61749 46.9015 6.37936C46.6364 3.22082 41.1704 3.02841 38.7267 3.12162C28.8256 3.92305 20.7523 6.18941 11.735 7.21623ZM7.25215 64.0393C11.2958 63.9824 15.7187 64.032 19.7805 63.705C22.0051 63.5259 24.7208 62.9838 27.1388 62.5744C32.3573 61.6906 41.5759 58.7134 46.147 62.5536C46.4602 62.8167 48.259 65.5384 48.6263 66.0872C49.441 65.626 51.7718 61.5965 54.2612 60.962C60.8592 59.2803 71.5037 63.3902 78.1711 63.748C81.6763 63.9361 87.5463 64.0715 90.5907 63.9193C90.1493 60.8153 90.4777 54.9006 90.4874 51.4459L90.5143 25.5594C90.5152 22.1798 90.705 15.4153 90.4261 12.2328C90.0643 11.4184 90.1025 11.1219 89.427 10.7263C88.4884 12.0031 89.6235 46.2414 89.1484 50.311C88.2706 57.8294 92.7673 60.6074 82.0772 58.7406C79.2893 58.2822 76.5187 57.7237 73.7709 57.066C64.8009 54.8955 56.0445 52.3946 48.7335 59.8596C43.5979 55.0513 42.6248 55.0554 35.9793 54.9869C30.2586 54.928 13.6998 60.3696 8.91968 59.2475C8.18374 58.3877 8.54221 47.5028 8.5447 45.4295L8.56181 18.9628C8.56252 17.6723 8.84485 10.9062 8.15805 10.4062C6.6228 13.1732 7.16313 21.7499 7.16262 25.1992L7.1742 52.2949C7.17728 55.5931 7.44147 61.0901 7.25215 64.0393ZM77.9754 66.6002C76.05 66.2042 74.1709 66.0683 72.249 65.6694C67.3864 64.6851 62.4911 63.4977 57.5437 63.03C52.7295 62.6384 52.8189 69.2671 48.6094 69.2368C45.1969 69.2122 44.4282 62.5506 40.6443 63.0301C30.3513 64.3344 20.5589 67.6268 10.0095 67.0671C8.31845 66.9774 5.07797 67.1402 3.87616 65.8239C4.20994 63.5043 4.11887 58.2487 4.12064 55.7473L4.11751 38.6565L4.10176 21.7946C4.09718 18.8065 4.21457 13.4603 3.71752 10.7275C2.8645 12.1696 3.17957 21.6953 3.17921 23.9639L3.16603 44.1485C3.16129 50.7678 2.78737 62.0839 3.31373 68.161L3.29632 69.0194C4.10621 69.6071 7.41281 68.784 8.62427 68.7493C19.2951 68.4435 29.9834 66.7799 40.6739 66.1481C46.9425 65.7777 43.2487 71.0697 49.3043 70.5523C50.2734 70.4545 51.682 69.7459 52.5555 69.2777C52.9653 68.251 53.4861 67.0345 53.7925 65.9924C56.8069 66.0109 59.6553 66.641 62.5575 66.7183C67.1693 66.8413 71.4572 67.4331 76.0248 67.9227C78.4876 67.7421 80.9215 68.2192 83.3612 68.6181C87.5336 69.2562 89.5702 68.5923 94.5748 69.7086L94.4724 66.2005C94.7678 59.2286 94.6406 51.7945 94.6407 44.7828L94.6361 14.1988C94.6326 13.3515 94.6683 11.4448 94.1271 10.9079C93.2435 12.4379 93.5961 20.7297 93.6032 22.9587L93.5972 40.5242L93.578 55.3885C93.5768 58.2746 93.4532 63.1452 93.9985 65.8136C90.8889 67.5482 89.3767 66.7376 86.4042 67.0393C83.2344 67.0369 81.1258 66.9698 77.9754 66.6002Z"/><path fill="#FDFCFE" d="M66.2065 9.11988C67.2703 9.15073 80.4104 11.7619 80.7984 11.9909C81.2069 12.835 81.0735 14.0745 81.0426 15.0403C77.1494 13.9125 70.2644 13.3732 66.959 12.1162C66.1041 11.2242 66.2149 10.3734 66.2065 9.11988Z"/><path fill="#FDFCFE" d="M67.5982 25.9016C68.6157 25.8934 79.655 27.7191 80.7142 28.4665C81.2338 29.2142 81.094 30.2551 81.0745 31.1859C79.3153 30.9664 69.2507 29.436 68.1552 28.9649C67.458 28.086 67.5328 26.9782 67.5982 25.9016Z"/><path fill="#FDFCFE" d="M63.8381 41.7485C64.1386 41.7593 64.439 41.7724 64.7392 41.7878C67.0533 41.9055 71.8278 42.2394 73.3653 43.9408C73.7709 44.7177 73.6314 45.1868 73.4938 46.0329C73.4618 46.0399 73.4297 46.0465 73.3976 46.0526C71.719 46.3678 65.5108 45.3158 64.1617 44.4103C63.6687 43.6693 63.8114 42.6569 63.8381 41.7485Z"/><path fill="#FDFCFE" d="M72.916 34.7457C74.6965 35.0648 80.005 35.9279 80.8463 37.1908C81.2578 37.8085 81.0234 39.0476 80.9315 39.7639C78.922 39.2575 76.9722 38.9698 74.9645 38.515C72.6606 37.9931 72.2905 36.8436 72.916 34.7457Z"/><path fill="#FDFCFE" d="M64.4508 17.4424C64.6004 17.4325 64.7504 17.4287 64.9003 17.4309C66.7704 17.4763 70.6601 17.6675 71.9515 19.0322C72.3316 20.0503 72.1516 20.0136 71.9139 21.2028C70.249 21.1287 66.205 20.3885 64.6884 19.795C64.2459 19.0898 64.3928 18.2722 64.4508 17.4424Z"/><path fill="#FDFCFE" d="M75.0256 18.8363C75.5353 18.8762 76.1109 19.0567 76.6187 19.1513C80.2266 19.8236 81.1568 19.3253 81.0843 23.2377C78.8151 22.4765 76.6816 22.7105 75.3519 21.5748C74.8185 20.8331 74.9878 19.7741 75.0256 18.8363Z"/><path fill="#FDFCFE" fill-opacity="0.93333334" d="M56.8821 33.5593C58.4771 33.3509 63.3649 33.0477 63.5933 35.1009C63.2809 35.6363 63.1643 35.7461 62.7074 36.1666C61.0664 35.9008 57.0015 35.9039 56.3907 35.3354C56.2997 34.3866 56.4169 34.4965 56.8821 33.5593Z"/><path fill="#FDFCFE" fill-opacity="0.92941177" d="M57.4237 8.82888C59.325 8.75054 63.2815 8.70472 63.2954 11.2983C62.8294 11.7048 63.0008 11.5952 62.3712 11.7038C60.7104 11.3309 56.9332 11.0777 56.1057 10.1653L56.1494 9.64656C56.4854 9.21036 56.9237 9.05914 57.4237 8.82888Z"/><path fill="#FDFCFE" d="M76.2431 43.7412C77.3341 43.8487 78.7597 44.0962 79.8073 44.4257C81.4937 44.9561 81.0742 46.4867 80.9355 47.8726C78.8357 47.2747 74.9443 46.9642 76.2431 43.7412Z"/><path fill="#FDFCFE" d="M66.1759 33.9132C67.6098 34.0385 69.028 33.9518 69.9779 35.0104C70.4275 35.7953 70.2615 36.6404 70.1848 37.5413C66.9968 37.2355 66.2227 37.3452 66.1759 33.9132Z"/><path fill="#020001" fill-opacity="0.22745098" d="M57.2428 20.3556C58.6816 20.1022 60.0549 19.728 60.6761 21.1457C59.1265 21.1594 58.3606 21.3129 57.2428 20.3556Z"/><path fill="#FDFCFE" d="M30.2382 9.31737C30.8315 9.23767 30.658 9.2502 31.2351 9.49429L31.4351 10.0148C31.3464 12.0728 29.2953 12.6391 27.5532 13.017C24.2935 13.724 20.9064 14.224 17.5946 14.6364C17.0855 14.7015 17.2321 14.6858 16.7216 14.397C15.4681 10.6502 27.3518 9.96843 30.2382 9.31737Z"/><path fill="#FDFCFE" d="M29.3821 26.0976C29.7614 26.1398 29.69 26.1739 30.0053 26.4888C30.0688 27.2421 30.1013 27.4534 29.7616 28.1211C27.896 30.1433 20.5832 30.2082 17.2729 31.1795C16.9539 31.0588 16.705 30.6608 16.4871 30.3783C16.2607 27.0185 26.4856 26.7917 29.3821 26.0976Z"/><path fill="#FDFCFE" d="M31.7864 41.8441C32.7896 41.6999 33.3466 41.4399 33.9839 42.2678C34.3574 45.6391 29.7271 45.5348 27.2188 45.8882C26.0641 46.0432 25.1549 46.4242 24.3943 45.4722C24.045 42.2633 29.2597 42.3046 31.7864 41.8441Z"/><path fill="#FDFCFE" d="M23.7518 35.0758L24.6177 35.0389L24.9699 35.3734C25.0753 36.2079 25.1605 36.5579 24.7644 37.3241C23.3941 38.7788 20.0601 38.89 17.8148 39.3785L17.0455 39.387L16.7164 39.0229C16.3888 35.6422 21.1584 35.6241 23.7518 35.0758Z"/><path fill="#FDFCFE" fill-opacity="0.98039216" d="M39.4134 8.63546C39.6955 8.59569 40.7734 8.74001 41.1201 8.77894C41.8441 9.27854 41.9495 9.40456 42.3581 10.1842C42.3239 11.0399 42.3995 10.7468 41.9232 11.5054C41.5479 11.6796 41.631 11.7355 41.2996 11.4793C40.3737 10.7634 39.0212 11.1352 37.8984 11.3103C36.2467 11.6948 35.6583 12.1472 34.3128 11.059L34.2612 10.4688C35.508 8.38769 37.3222 8.60971 39.4134 8.63546Z"/><path fill="#FDFCFE" fill-opacity="0.97254902" d="M36.3104 33.5354C38.3025 33.3563 41.3299 32.721 42.111 35.0952C41.8699 35.8624 42.0396 35.669 41.4256 36.0842L40.5373 35.739C38.6571 35.7166 35.3797 36.7807 34.2447 35.3C34.2627 34.9472 34.2147 34.6067 34.408 34.3598L34.4341 34.3268C34.7464 33.9282 35.7883 33.6881 36.3104 33.5354Z"/><path fill="#FDFCFE" fill-opacity="0.98823529" d="M32.5755 17.5586C32.7683 17.5554 32.9581 17.7257 33.1299 17.8442L33.0595 19.1431C31.772 20.935 29.0899 19.8909 26.5486 21.0775L25.867 21.0482L25.5684 20.6359C25.4016 17.3461 30.0969 18.177 32.5755 17.5586Z"/><path fill="#FDFCFE" d="M21.8882 19.0642C22.1639 19.0982 22.2893 19.2753 22.5302 19.4775C22.7139 20.1891 22.7017 20.3243 22.4736 21.0238C21.5566 22.3076 19.385 22.4366 17.8096 22.7185C17.47 22.7817 17.2802 22.6621 16.9692 22.5199C16.7557 21.5832 16.7326 21.9236 16.9948 21.0323C18.0091 19.8178 20.3206 19.458 21.8882 19.0642Z"/><path fill="#FDFCFE" fill-opacity="0.97647059" d="M37.8387 41.3349C39.0289 41.2784 41.3245 41.0395 41.9554 42.1104C42.0148 43.0101 42.0721 43.3868 41.7634 44.2584L41.3988 44.4283L41.0584 44.0974C39.654 43.7925 36.4723 44.784 36.3576 42.7021C36.8868 41.9304 37.0464 41.8071 37.8387 41.3349Z"/><path fill="#FDFCFE" fill-opacity="0.98823529" d="M21.0143 43.8072C21.4009 44.0203 21.3812 44.1332 21.6275 44.5481C21.7765 46.3299 18.954 47.1811 17.5832 47.402C16.9853 46.617 17.0788 46.9444 17.0864 46.0188C17.7443 44.7781 19.6766 44.2929 21.0143 43.8072Z"/><path fill="#FDFCFE" d="M29.6059 34.2582C30.5762 34.2632 30.6264 34.2409 31.199 34.7606C31.3841 36.4048 30.202 37.0031 28.8178 37.326C28.1947 37.455 27.8126 37.3062 27.4173 36.8637C27.3634 35.5532 28.6335 34.8486 29.6059 34.2582Z"/><path fill="#FFFEFF" fill-opacity="0.023529412" d="M93.9985 65.8136C93.4532 63.1452 93.5768 58.2746 93.578 55.3885L93.5972 40.5242L93.6032 22.9587C93.5961 20.7297 93.2435 12.4379 94.1271 10.9079C94.6683 11.4448 94.6326 13.3515 94.6361 14.1988L94.6407 44.7828C94.6406 51.7945 94.7678 59.2286 94.4724 66.2005L93.9985 65.8136Z"/><path fill="#020001" fill-opacity="0.12156863" d="M3.31373 68.161C2.78737 62.0839 3.16129 50.7678 3.16603 44.1485L3.17921 23.9639C3.17957 21.6953 2.8645 12.1696 3.71752 10.7275C4.21457 13.4603 4.09718 18.8065 4.10176 21.7946L4.11751 38.6565L4.12064 55.7473C4.11887 58.2487 4.20994 63.5043 3.87616 65.8239C3.66874 66.4941 3.45855 67.7551 3.31373 68.161Z"/><path fill="#020001" fill-opacity="0.027450981" d="M77.9754 66.6002C81.1258 66.9698 83.2344 67.0369 86.4042 67.0393C84.9693 68.6227 83.7394 67.2645 82.9068 68.0107L83.3612 68.6181C80.9215 68.2192 78.4876 67.7421 76.0248 67.9227C76.6966 67.2821 77.1775 67.0461 77.9754 66.6002Z"/></svg>