<?xml version="1.0" encoding="utf-8" ?><svg xmlns="http://www.w3.org/2000/svg" xmlns:xlink="http://www.w3.org/1999/xlink" width="81" height="86" viewBox="0 0 81 86"><path fill="#FEFDFE" d="M12.2553 0L16.9474 0C18.0006 0.480422 19.5423 0.788814 20.6891 1.15653C27.8927 3.46635 31.6707 10.8667 32.1844 18.0201C32.2662 19.1599 32.5323 20.5364 33.0497 21.5787C34.1544 23.5754 38.4337 26.9231 40.3215 28.1455C42.4134 26.4442 45.5378 24.0063 47.0408 21.8316C47.9142 20.5677 48.2692 18.1002 48.4675 16.5302C49.2246 10.5336 51.2828 6.34916 56.2479 2.77556C58.5688 1.10504 61.7415 0.850226 63.2694 0L67.6239 0C72.2195 1.39284 75.8493 2.92182 78.1672 7.42659C83.1204 17.0535 79.4792 27.7176 70.0381 32.8359C62.1326 37.1217 55.3327 31.6441 50.5142 41.3435C53.4735 48.8562 56.3796 56.3896 59.2325 63.9434C60.8549 68.2216 62.6317 72.3803 63.6788 76.8665C64.617 80.8867 62.5989 83.3152 59.0255 84.967C58.6558 85.1379 58.2368 85.1738 57.836 85.1032C56.7138 84.4734 41.9535 60.5582 40.236 57.7078L28.7358 75.8546C26.9766 78.6288 25.1978 81.5447 23.3893 84.2929C22.948 84.9635 22.8448 84.9988 22.1934 85.199C19.0643 84.9053 16.0715 81.2568 16.5446 77.9941C17.1243 73.9968 18.5136 70.725 19.9299 66.9941L26.7507 49.0897C27.3247 47.5831 29.4398 42.4207 29.7893 41.1347C25.3465 34.6043 23.3431 35.1771 15.8875 34.5069C10.5842 34.0301 5.92908 30.7035 3.12573 26.3623C0.618713 22.8815 1.20206 21.42 0 18.9244L0 13.5767C0.25061 13.1513 0.688174 11.3529 0.885881 10.7844C3.78984 2.43326 5.70306 3.21726 12.2553 0ZM27.8589 32.9829C28.9997 30.6765 30.4289 27.5898 31.7731 25.4771C26.9309 19.0317 30.0424 12.1155 23.3973 6.25325C21.7217 4.76644 19.6439 3.80813 17.4251 3.49874C17.0146 3.44095 15.8592 3.2997 15.4778 3.36719C-2.30166 4.51565 0.988257 29.7302 16.5439 31.2488C18.1109 31.4018 19.9215 31.5125 21.4399 31.719C24.0386 31.8965 25.5907 31.7511 27.8589 32.9829ZM45.581 28.1905C44.3942 29.1824 43.7308 29.6288 42.41 30.4428C44.4417 31.9214 47.2729 33.7802 48.6233 35.8641C48.776 36.1126 49.0473 36.6177 49.2642 36.7657L49.6904 36.6756C50.0934 35.2008 46.8528 28.3659 45.581 28.1905ZM52.2999 32.9803C55.2599 31.8325 56.3036 31.7851 59.4847 31.5774C65.1464 31.4322 68.0401 31.1563 72.3575 27.0406C80.3802 19.3929 77.6555 3.74706 65.2565 3.35474C53.8277 4.21523 52.7931 11.8852 51.0001 21.1228C50.6906 22.7171 49.3623 24.3612 48.6307 25.7621C50.2469 28.409 51.2491 30.0187 52.2999 32.9803ZM30.3179 35.4944C39.0382 50.2144 49.2988 64.9851 58.0336 79.8613C58.7313 80.6656 58.5219 80.6842 59.4128 80.8515C62.4753 78.6144 57.2168 68.6908 56.2004 65.4716C55.0052 62.5125 53.9254 59.3437 52.7235 56.4055C50.1129 50.0238 48.0279 42.9184 44.9089 36.8359C44.4925 36.0238 35.1974 28.2695 34.349 27.888C33.2259 30.3538 31.6404 33.0902 30.3179 35.4944ZM32.0765 45.1622L24.4184 65.0142C22.8789 69.0262 21.1793 73.0664 20.0392 77.2036C19.6856 78.4868 19.5071 80.0141 20.8303 80.7343C22.2864 80.4704 22.319 79.8772 22.9947 78.6046L33.3008 62.1859C34.3803 60.4714 37.3126 56.1178 38.0742 54.5542C37.2582 53.1905 32.7179 45.4625 32.0765 45.1622Z"/><path fill="#6842FF" d="M14.025 8.82645C15.8577 8.53592 17.2189 8.72329 18.8909 9.58433C20.9959 10.6816 22.578 12.5711 23.2882 14.8363C24.8902 19.8604 22.8283 24.4184 17.7344 26.0212C8.59101 26.3377 4.04196 12.6913 14.025 8.82645ZM17.3062 23.0205C22.747 20.7437 21.4633 12.6295 15.155 11.7274C13.5344 12.405 12.4877 12.8082 11.8683 14.5649C10.448 18.5931 12.8091 23.058 17.3062 23.0205Z"/><path fill="#FEFDFE" d="M63.1761 8.81853C64.9037 8.52864 66.6784 8.83707 68.2069 9.6928C74.6453 13.3456 72.5452 23.6153 64.7758 25.721C64.7168 25.7556 64.5732 25.8354 64.512 25.8501C58.0716 27.3886 55.0918 18.7244 57.4529 13.9215C58.8266 11.127 60.2971 9.92743 63.1761 8.81853ZM63.9161 23.1145C67.5873 22.3802 69.394 18.6086 68.7093 15.1445C68.4892 13.9996 67.8232 12.9891 66.8579 12.3355C66.2806 11.9513 65.6717 11.7935 64.9872 11.7824C63.0115 12.2079 61.7124 12.7903 60.5617 14.5749C59.6881 15.9332 59.3856 17.5814 59.7201 19.1614C60.252 21.5607 61.6876 22.4697 63.9161 23.1145Z"/><path fill="#6842FF" d="M39.2802 37.1808C40.2897 36.8452 41.402 37.0895 42.178 37.8171C42.9541 38.5448 43.2693 39.639 42.9993 40.6681C42.7294 41.6971 41.9176 42.4956 40.8842 42.7486C39.3731 43.1185 37.8393 42.2299 37.4086 40.7349C36.9779 39.24 37.8038 37.6715 39.2802 37.1808Z"/></svg>