<?xml version="1.0" encoding="utf-8" ?><svg xmlns="http://www.w3.org/2000/svg" xmlns:xlink="http://www.w3.org/1999/xlink" width="81" height="86" viewBox="0 0 81 86"><path fill="#6842FF" transform="scale(0.0791016 0.0791168)" d="M154.931 0L214.249 0C227.563 6.07231 247.053 9.97024 261.551 14.618C352.619 43.8131 400.38 137.35 406.874 227.766C407.909 242.172 411.273 259.571 417.814 272.745C431.779 297.982 485.878 340.295 509.743 355.746C536.189 334.242 575.688 303.428 594.689 275.941C605.73 259.966 610.218 228.778 612.725 208.934C622.296 133.14 648.316 80.2504 711.085 35.0818C740.425 13.9672 780.535 10.7465 799.85 0L854.9 0C912.997 17.6049 958.885 36.9304 988.188 93.8686C1050.81 215.548 1004.77 350.338 885.42 415.03C785.479 469.201 699.515 399.967 638.599 522.563C676.011 617.52 712.75 712.738 748.816 808.215C769.326 862.289 791.788 914.853 805.026 971.557C816.886 1022.37 791.374 1053.07 746.199 1073.94C741.525 1076.1 736.228 1076.56 731.161 1075.66C716.974 1067.7 530.375 765.427 508.663 729.4L363.277 958.767C341.038 993.831 318.55 1030.69 295.687 1065.42C290.108 1073.9 288.803 1074.35 280.568 1076.88C241.01 1073.16 203.176 1027.05 209.156 985.809C216.485 935.285 234.048 893.931 251.953 846.774L338.182 620.471C345.438 601.428 372.177 536.178 376.596 519.923C320.43 437.382 295.103 444.622 200.849 436.151C133.805 430.125 74.9553 388.078 39.5154 333.207C7.82175 289.212 15.1964 270.739 0 239.196L0 171.603C3.16821 166.226 8.69988 143.495 11.1993 136.31C47.9111 30.7553 72.0979 40.6647 154.931 0ZM352.192 416.888C366.613 387.737 384.681 348.722 401.675 322.019C340.46 240.552 379.795 153.134 295.788 79.0382C274.605 60.2456 248.338 48.133 220.288 44.2224C215.098 43.492 200.492 41.7067 195.67 42.5597C-29.0975 57.0757 12.4935 375.776 209.148 394.97C228.958 396.904 251.847 398.303 271.043 400.913C303.895 403.157 323.517 401.319 352.192 416.888ZM576.234 356.315C561.23 368.852 552.844 374.494 536.146 384.783C561.831 403.472 597.623 426.966 614.695 453.306C616.625 456.446 620.055 462.831 622.797 464.701L628.185 463.562C633.28 444.922 592.312 358.532 576.234 356.315ZM661.174 416.856C698.594 402.348 711.789 401.749 752.004 399.124C823.579 397.288 860.161 393.801 914.742 341.781C1016.16 245.117 981.719 47.3611 824.971 42.4024C680.488 53.2785 667.409 150.223 644.742 266.982C640.829 287.134 624.037 307.914 614.788 325.621C635.22 359.077 647.89 379.422 661.174 416.856ZM383.278 448.633C493.52 634.687 623.234 821.381 733.659 1009.41C742.48 1019.58 739.832 1019.81 751.095 1021.93C789.811 993.649 723.333 868.22 710.484 827.531C695.374 790.129 681.724 750.077 666.529 712.939C633.526 632.278 607.168 542.469 567.737 465.589C562.473 455.324 444.965 357.313 434.239 352.491C420.041 383.658 399.997 418.245 383.278 448.633ZM405.51 570.829L308.697 821.749C289.234 872.459 267.748 923.525 253.335 975.818C248.865 992.037 246.608 1011.34 263.336 1020.44C281.744 1017.11 282.156 1009.61 290.698 993.526L420.988 786.001C434.635 764.33 471.705 709.303 481.333 689.54C471.017 672.303 413.619 574.625 405.51 570.829Z"/><path fill="#6842FF" transform="scale(0.0791016 0.0791168)" d="M177.304 111.562C200.473 107.89 217.681 110.258 238.818 121.141C265.43 135.01 285.431 158.893 294.409 187.524C314.661 251.026 288.595 308.637 224.198 328.896C108.607 332.896 51.0984 160.412 177.304 111.562ZM218.785 290.968C287.567 262.191 271.339 159.631 191.589 148.229C171.102 156.793 157.869 161.89 150.039 184.094C132.083 235.008 161.932 291.442 218.785 290.968Z"/><path fill="#6842FF" transform="scale(0.0791016 0.0791168)" d="M798.671 111.462C820.511 107.798 842.947 111.696 862.27 122.512C943.664 168.682 917.115 298.486 818.894 325.102C818.148 325.539 816.333 326.547 815.559 326.733C734.14 346.179 696.469 236.668 726.318 175.961C743.684 140.64 762.274 125.478 798.671 111.462ZM808.026 292.157C854.437 282.875 877.277 235.204 868.621 191.419C865.839 176.948 857.419 164.176 845.216 155.915C837.918 151.059 830.22 149.064 821.567 148.924C796.59 154.302 780.167 161.663 765.62 184.22C754.576 201.388 750.751 222.221 754.98 242.191C761.704 272.517 779.853 284.007 808.026 292.157Z"/><path fill="#6842FF" transform="scale(0.0791016 0.0791168)" d="M496.579 469.948C509.341 465.706 523.403 468.794 533.213 477.991C543.025 487.188 547.009 501.019 543.596 514.026C540.184 527.032 529.921 537.125 516.857 540.322C497.754 544.998 478.363 533.766 472.919 514.87C467.474 495.975 477.915 476.15 496.579 469.948Z"/></svg>