<?xml version="1.0" encoding="utf-8" ?><svg xmlns="http://www.w3.org/2000/svg" xmlns:xlink="http://www.w3.org/1999/xlink" width="82" height="86" viewBox="0 0 82 86"><path fill="#FEFEFE" d="M53.1335 29.0047C59.018 28.9879 65.9761 28.7855 71.7738 29.0025C73.7851 33.6188 75.8417 38.2152 77.9432 42.7911C78.9333 44.973 80.2741 47.36 80.9181 49.6615C81.5068 51.7654 81.2842 83.8602 80.9325 84.7143C80.8947 84.806 80.8419 84.8918 80.7861 84.9735C78.257 85.3712 74.4514 85.2401 71.7907 85.24L57.9569 85.2364L21.5767 85.2346C14.6148 85.238 6.90588 85.1063 0 85.3719L0 49.8102C0.356867 49.2928 0.436148 48.9911 0.683953 48.4547C3.65621 42.0207 6.44099 35.505 9.31152 29.0238C11.8022 28.9598 26.9602 28.624 28.1439 29.3954C28.5375 30.2527 28.5077 29.9288 28.3273 30.8228C26.4904 33.0256 14.3325 32.5586 11.1846 32.2811C9.15804 37.4078 6.70972 42.4229 4.52971 47.4893C4.24687 48.1467 3.94255 48.7599 3.58278 49.3795C8.12997 48.7482 16.7583 48.5304 20.4441 51.3061C22.4538 52.8196 23.8413 55.6695 26.1388 56.6608C27.795 57.3754 51.1041 57.1928 53.8977 56.8011C58.1712 56.2019 59.2069 50.9268 63.2131 49.7108C67.5426 48.3966 73.1157 49.3098 77.6057 49.2258C75.963 45.7393 74.3664 42.2311 72.8166 38.7023C72.078 37.0351 70.656 33.6342 69.8338 32.2015C65.509 32.6206 57.367 32.5188 53.0632 32.2115L53.1335 29.0047ZM17.3363 52.5557C13.0071 52.165 6.94049 52.7968 3.36717 52.2064C3.50512 59.6699 3.31585 67.5448 3.30594 75.0692C3.33431 76.9547 3.48618 80.5971 3.14863 82.3025C7.98907 82.11 13.1847 82.1605 18.039 82.2248C38.082 82.4907 58.2848 81.8839 78.3107 82.318C77.2816 76.0922 78.4564 59.7702 77.9895 52.6208C77.9895 52.6205 77.658 52.246 77.6216 52.217C77.5891 52.2039 77.5567 52.1908 77.5242 52.1777C74.2667 52.4577 66.3184 51.9209 63.6537 53.0451C60.8065 54.2464 58.7834 60.4227 54.2037 59.9065C49.6878 60.0726 45.0596 60.1008 40.5416 60.0388C35.5364 59.9702 30.1733 60.3496 25.2439 59.5589C21.8444 59.0136 19.716 54.4873 17.3363 52.5557Z"/><path fill="#FEFEFE" d="M40.3976 0L40.9527 0C41.6211 1.27447 56.2175 19.0175 57.7889 20.4339C54.7245 20.6469 52.5494 20.8196 49.489 20.5125C49.7103 25.6609 49.1052 36.697 49.7492 41.0357L32.066 41.0226C31.9532 37.7623 31.3948 23.2403 31.8129 20.4709C29.2864 20.7725 26.2338 20.6206 23.6703 20.5501C24.0067 20.014 24.3794 19.5075 24.7582 19.0014C29.6754 12.4332 35.2671 6.39452 40.3976 0Z"/></svg>