<svg width="64" height="64" viewBox="0 0 64 64" fill="none" xmlns="http://www.w3.org/2000/svg">
  <circle cx="32" cy="24" r="16" stroke="#A855F7" stroke-width="3"/>
  <circle cx="32" cy="24" r="3" fill="#A855F7"/>
  <path d="M32 27V50" stroke="#A855F7" stroke-width="3" stroke-linecap="round"/>
  <path d="M24 50H40" stroke="#A855F7" stroke-width="3" stroke-linecap="round"/>
  <path d="M32 24L20 16" stroke="#A855F7" stroke-width="2.5" stroke-linecap="round"/>
  <path d="M32 24L44 16" stroke="#A855F7" stroke-width="2.5" stroke-linecap="round"/>
  <path d="M32 24L18 24" stroke="#A855F7" stroke-width="2.5" stroke-linecap="round"/>
  <path d="M32 24L46 24" stroke="#A855F7" stroke-width="2.5" stroke-linecap="round"/>
  <path d="M32 24L22 35" stroke="#A855F7" stroke-width="2.5" stroke-linecap="round"/>
  <path d="M32 24L42 35" stroke="#A855F7" stroke-width="2.5" stroke-linecap="round"/>
  <rect x="15" y="10" width="6" height="5" rx="1.5" fill="#22D3EE"/>
  <rect x="43" y="10" width="6" height="5" rx="1.5" fill="#F97316"/>
  <rect x="12" y="22" width="6" height="5" rx="1.5" fill="#A855F7"/>
  <rect x="46" y="22" width="6" height="5" rx="1.5" fill="#22D3EE"/>
  <rect x="18" y="34" width="6" height="5" rx="1.5" fill="#F97316"/>
  <rect x="40" y="34" width="6" height="5" rx="1.5" fill="#A855F7"/>
</svg>